<?xml version="1.0" encoding="UTF-8" standalone="no"?>
<svg width="444.25552pt" height="283.24118pt" version="1.2" viewBox="0 0 222.12777 141.62059" id="svg2371" xml:space="preserve" xmlns="http://www.w3.org/2000/svg" xmlns:svg="http://www.w3.org/2000/svg">
  <path d="m 0.87703347,129.05583 4.20310003,0.0117 -0.0156,4.4414 -2.2188,-0.0117 -0.0312,7.1719 42.0229995,0.1875 58.077997,0.26172 0.15625,-30.156 0.008,-1.5586 0.0664,-15.488005 0.125,-32.887 11.5,0.0508 -0.11719,33.039 -0.0312,7.793005 23.621,0.20312 0.17969,-31.422005 -8.2617,-0.0352 0.043,-10.855 4.1055,0.0234 -0.0352,6.8633 33.656,0.12891 0.0234,-7.1797 4.6055,0.0234 -0.043,10.832 -8.6094,-0.0234 -0.10938,31.891005 22.688,0.0703 0.0312,-8.398405 0.10938,-34.48 12.625,0.0351 -0.0664,34.613 -0.0586,15.484005 -0.043,10.785 22.594,0.29688 0.32422,-119.9100046 -22.438,-0.0703 -0.16406,52.8119996 -12.336,-0.0352 0.0234,-7.9844 -30.117,-0.0937 0.008,-3.6406 -11.234,-0.0469 h -1.0352 l -0.0156,3.4609 -29.484,-0.10547 -0.0234,8.457 -5.9766,-0.0234 -1.8398,-0.0117 -3.9805,-0.0117 0.1875,-41.07 -0.008,-11.9179996 -23.354997,-0.0742 -0.26172,73.6989996 -5.8867,-0.0234 -0.13281,36.762005 -44.078,-0.15625 -0.17578,-2.4336 -18.844,-0.0703 0.0859,2.4336 -9.96879953,-0.0352 z" fill="#2b2b2e" id="path112-8" style="fill:none;stroke:#ffffff;stroke-opacity:1"/>
  <path style="fill:none;stroke:#ffffff;stroke-width:0.75;stroke-opacity:1" d="M 79.917658,44.48054 H 96.11026" id="path2371"/>
  <path style="fill:none;stroke:#ffffff;stroke-width:0.75;stroke-opacity:1" d="M 79.955372,55.92047 H 96.326028 V 14.772503 H 79.996851" id="path2372"/>
  <path style="fill:none;stroke:#ffffff;stroke-width:0.75;stroke-opacity:1" d="M 79.963041,22.798328 H 96.063059" id="path2373"/>
  <path style="fill:none;stroke:#ffffff;stroke-width:0.75;stroke-opacity:1" d="M 96.14821,29.454845 H 80.073081" id="path2374"/>
  <path style="fill:none;stroke:#ffffff;stroke-width:0.75;stroke-opacity:1" d="m 79.971336,40.549872 h 16.09407" id="path2375"/>
  <path style="fill:none;stroke:#ffffff;stroke-width:0.75;stroke-opacity:1" d="m 90.480794,40.830372 v 3.439707" id="path2376"/>
  <path style="fill:none;stroke:#ffffff;stroke-width:0.75;stroke-opacity:1" d="m 79.855975,60.957703 h 20.222345 v 8.25921" id="path2377"/>
  <path style="fill:none;stroke:#ffffff;stroke-width:0.75;stroke-opacity:1" d="m 100.13295,67.204899 h 3.21767" id="path2378"/>
  <path style="fill:none;stroke:#ffffff;stroke-width:0.75;stroke-opacity:1" d="m 104.15604,61.239306 v -2.971381 h 3.18628 v 2.708877" id="path2380"/>
  <path style="fill:none;stroke:#ffffff;stroke-width:0.75;stroke-opacity:1" d="M 103.00978,48.843676 H 99.297558 V 21.557529 l 3.994972,0" id="path2381"/>
  <path style="fill:none;stroke:#ffffff;stroke-width:0.75;stroke-opacity:1" d="m 99.574454,26.688366 h 3.829126" id="path2382"/>
  <path style="fill:none;stroke:#ffffff;stroke-width:0.75;stroke-opacity:1" d="M 103.28616,36.445706 H 99.478345" id="path2383"/>
  <path style="fill:none;stroke:#ffffff;stroke-width:0.75;stroke-opacity:1" d="m 99.439683,40.535004 h 3.886597" id="path2384"/>
  <path style="fill:none;stroke:#ffffff;stroke-width:0.75;stroke-opacity:1" d="m 103.12885,45.042234 -3.583822,0" id="path2385"/>
  <path style="fill:none;stroke:#ffffff;stroke-width:0.75;stroke-opacity:1" d="M 103.43672,9.5735759 H 95.164431 V 8.8009529 H 90.651254 V 14.486525" id="path2386"/>
  <path style="fill:none;stroke:#ffffff;stroke-width:0.75;stroke-opacity:1" d="M 90.504587,9.3624194 H 80.211606" id="path2387"/>
  <path style="fill:none;stroke:#ffffff;stroke-width:0.75;stroke-opacity:1" d="m 84.765167,9.5759238 v 2.5219822 h 5.66538" id="path2388"/>
  <path style="fill:none;stroke:#ffffff;stroke-width:0.75;stroke-opacity:1" d="M 92.871137,8.690131 V 0.66492876" id="path2389"/>
  <path style="fill:none;stroke:#ffffff;stroke-width:0.75;stroke-opacity:1" d="m 199.53029,3.2951019 h 6.06072 v 6.7292201 h -6.18787" id="path2390"/>
  <path style="fill:none;stroke:#ffffff;stroke-width:0.75;stroke-opacity:1" d="m 199.50512,5.0283114 3.00545,0 V 9.812935" id="path2391"/>
  <path style="fill:none;stroke:#ffffff;stroke-width:0.75;stroke-opacity:1" d="m 204.8702,10.106849 v 6.460162 h 13.14496 V 3.365697 h 3.63245" id="path2392"/>
  <path style="fill:none;stroke:#ffffff;stroke-width:0.75;stroke-opacity:1" d="M 218.64982,1.2428445 V 3.3724678" id="path2393"/>
  <path style="fill:none;stroke:#ffffff;stroke-width:0.75;stroke-opacity:1" d="m 217.97852,8.8122276 h 3.71124" id="path2394"/>
  <path style="fill:none;stroke:#ffffff;stroke-width:0.75;stroke-opacity:1" d="M 211.83519,1.1773268 V 16.558847" id="path2395"/>
  <path style="fill:none;stroke:#ffffff;stroke-width:0.75;stroke-opacity:1" d="m 199.54355,18.089451 h 22.08091" id="path2396"/>
  <path style="fill:none;stroke:#ffffff;stroke-width:0.75;stroke-opacity:1" d="m 199.33684,14.526803 h 3.21157 v 3.722758" id="path2397"/>
  <path style="fill:none;stroke:#ffffff;stroke-width:0.75;stroke-opacity:1" d="m 199.40435,22.181108 h 5.26073 v 31.542617 h -5.67972" id="path2398"/>
  <path style="fill:none;stroke:#ffffff;stroke-width:0.75;stroke-opacity:1" d="m 199.31512,26.033103 h 5.1144" id="path2399"/>
  <path style="fill:none;stroke:#ffffff;stroke-width:0.75;stroke-opacity:1" d="m 204.43023,29.710567 h -5.0285" id="path2400"/>
  <path style="fill:none;stroke:#ffffff;stroke-width:0.75;stroke-opacity:1" d="m 199.38382,33.436131 h 5.08759" id="path2401"/>
  <path style="fill:none;stroke:#ffffff;stroke-width:0.75;stroke-opacity:1" d="m 204.31569,37.224041 h -4.9495" id="path2402"/>
  <path style="fill:none;stroke:#ffffff;stroke-width:0.75;stroke-opacity:1" d="m 199.34136,41.019429 h 5.09648" id="path2403"/>
  <path style="fill:none;stroke:#ffffff;stroke-width:0.75;stroke-opacity:1" d="m 199.27845,48.364906 h 5.19748" id="path2404"/>
  <path style="fill:none;stroke:#ffffff;stroke-width:0.75;stroke-opacity:1" d="m 199.08821,59.464833 h 9.30327" id="path2405"/>
  <path style="fill:none;stroke:#ffffff;stroke-width:0.75;stroke-opacity:1" d="m 199.15524,64.859233 h 18.84067" id="path2406"/>
  <path style="fill:none;stroke:#ffffff;stroke-width:0.75;stroke-opacity:1" d="m 218.03388,69.518908 v -5.285539 h 3.59585" id="path2407"/>
  <path style="fill:none;stroke:#ffffff;stroke-width:0.75;stroke-opacity:1" d="m 204.25349,59.696433 0,9.455856" id="path2408"/>
  <path style="fill:none;stroke:#ffffff;stroke-width:0.75;stroke-opacity:1" d="m 213.23093,65.142249 v 7.062113" id="path2409"/>
  <path style="fill:none;stroke:#ffffff;stroke-width:0.75;stroke-opacity:1" d="M 208.30047,64.606074 208.1532,49.501063 h 0.63689 v -2.643334 h -0.63689 v -4.207572 h 0.63689 V 39.69896 h -0.63689 v -4.825087 h 0.63689 v -2.743404 h -0.63689 v -5.704845 h 9.12641 v -0.677392 h 4.4057" id="path2410"/>
  <path style="fill:none;stroke:#ffffff;stroke-width:0.75;stroke-opacity:1" d="M 221.56119,24.153856 H 211.05827 V 18.343801" id="path2411"/>
  <path style="fill:none;stroke:#ffffff;stroke-width:0.75;stroke-opacity:1" d="m 209.02188,33.453378 h 12.55285" id="path2412"/>
  <path style="fill:none;stroke:#ffffff;stroke-width:0.75;stroke-opacity:1" d="M 221.60039,41.105964 H 209.06211" id="path2413"/>
  <path style="fill:none;stroke:#ffffff;stroke-width:0.75;stroke-opacity:1" d="m 208.88941,48.203326 h 12.70997" id="path2414"/>
  <path style="fill:none;stroke:#ffffff;stroke-width:0.75;stroke-opacity:1" d="m 208.4521,52.935365 h 10.35187 v 1.80126 h 2.93685" id="path2415"/>
  <path style="fill:none;stroke:#ffffff;stroke-width:0.75;stroke-opacity:1" d="m 208.35811,55.888164 h 2.93321 v -2.69166" id="path2416"/>
  <path style="fill:none;stroke:#ffffff;stroke-width:1;stroke-dasharray:none;stroke-opacity:1" d="m 199.31077,69.348384 h 4.81863 v 3.072398 h 14.02935 v -3.072398 h 3.36106" id="path1"/>
  <path style="fill:#ffffff;stroke:#ffffff;stroke-width:1;stroke-dasharray:none;stroke-opacity:1" d="M 103.01796,69.300654 H 80.046437" id="path2"/>
</svg>
